<?xml version="1.0" standalone="no"?>
<!DOCTYPE svg PUBLIC "-//W3C//DTD SVG 1.1//EN" "http://www.w3.org/Graphics/SVG/1.1/DTD/svg11.dtd" >
<svg xmlns="http://www.w3.org/2000/svg">
<metadata></metadata>
<defs>
<font id="pill_gothic_300mglight_obliq" horiz-adv-x="892" >
<font-face units-per-em="2048" ascent="1638" descent="-410" />
<missing-glyph horiz-adv-x="444" />
<glyph unicode="&#xdf;" horiz-adv-x="1146" d="M115 0l135 932h-76l14 100h76l31 207q18 126 104.5 201.5t196.5 75.5q65 0 115 -35l-43 -97q-33 23 -72 23q-76 0 -128 -46t-65 -134l-28 -195h633l-15 -98l-231 -326h43q49 -1 83 -22t47.5 -51.5t19.5 -67t-1 -68.5l-30 -221q-12 -81 -91 -136.5t-171 -55.5 q-78 0 -133.5 41t-73.5 108l82 55q6 -45 43 -74.5t88 -29.5q54 0 96 26t49 70l29 209q8 53 -12 86t-68 33h-135l14 96l227 324h-508l-135 -930h-110z" />
<glyph unicode="&#xfb01;" horiz-adv-x="1085" d="M98 0l138 948h-119l14 99h119l22 145q12 88 71.5 149t146 89t194.5 28q106 0 229 -35l-32 -90q-18 2 -50.5 6t-50 6t-45.5 3.5t-55 1.5q-126 0 -206.5 -43t-92.5 -125l-19 -135h201l-12 -99h-203l-139 -948h-111zM631 0l151 1047h113l-152 -1047h-112z" />
<glyph unicode="&#xfb02;" horiz-adv-x="1032" d="M74 0l137 948h-121l14 99h121l21 145q13 88 72 149t145.5 89t193.5 28q111 0 230 -35l-4 -10h53l-205 -1413h-115l195 1337q-115 13 -158 13q-125 0 -206 -43t-93 -125l-18 -135h203l-15 -99h-202l-138 -948h-110z" />
<glyph horiz-adv-x="2048" />
<glyph horiz-adv-x="2048" />
<glyph horiz-adv-x="682" />
<glyph unicode="&#xd;" horiz-adv-x="444" />
<glyph unicode=" "  horiz-adv-x="444" />
<glyph unicode="&#x09;" horiz-adv-x="444" />
<glyph unicode="&#xa0;" horiz-adv-x="444" />
<glyph unicode="!" horiz-adv-x="518" d="M90 0l29 188h180l-27 -188h-182zM197 481l125 912h118l-137 -912h-106z" />
<glyph unicode="&#x22;" horiz-adv-x="600" d="M174 942l64 453h92l-68 -453h-88zM406 942l63 453h94l-67 -453h-90z" />
<glyph unicode="#" horiz-adv-x="1359" d="M98 342l17 92h303l131 404h-326l15 94h344l120 379h99l-121 -379h188l121 379h98l-120 -379h252l-13 -94h-270l-131 -404h287l-15 -92h-301l-106 -342h-101l105 342h-187l-108 -342h-98l106 342h-289zM516 434h191l129 404h-187z" />
<glyph unicode="$" horiz-adv-x="878" d="M-23 166l86 74q41 -75 114.5 -112.5t162.5 -37.5q99 0 177.5 59t92.5 162l27 181l-506 331l39 273q22 150 110 226t222 87l26 188h105l-29 -188q164 -16 264 -143l-77 -90q-37 55 -102 91t-148 36q-97 0 -167.5 -52t-86.5 -159l-31 -209l506 -326l-37 -250 q-21 -146 -108 -223.5t-220 -93.5l-35 -238h-102l33 234q-106 6 -187.5 52t-128.5 128z" />
<glyph unicode="%" horiz-adv-x="1490" d="M152 0l1034 1393h119l-1031 -1393h-122zM197 991l30 211q13 91 95 151t186 60q99 0 165.5 -62t53.5 -149l-31 -211q-13 -93 -94 -153t-186 -60q-102 0 -167 61t-52 152zM295 997q-7 -54 31.5 -87t103.5 -33q60 0 112 35t58 85l31 201q6 52 -33.5 84.5t-103.5 32.5 q-60 0 -111.5 -35t-58.5 -84zM739 188l33 218q12 91 93 149.5t186 58.5q98 0 163 -59.5t52 -146.5l-31 -218q-13 -93 -92.5 -150.5t-184.5 -57.5q-99 0 -165 59.5t-54 146.5zM836 197q-7 -53 32.5 -87t102.5 -34q59 0 112 36t60 85l28 200q7 53 -32.5 86t-102.5 33 q-61 0 -113.5 -35t-58.5 -84z" />
<glyph unicode="&#x26;" horiz-adv-x="1290" d="M66 309q7 45 28.5 89.5t46 78.5t69 77t74.5 68.5t86 71t81 66.5l34 28l-137 222l27 178q13 100 93 163.5t187 63.5q118 0 177 -70t42 -192q-9 -57 -32 -108.5t-62 -99.5t-73.5 -83t-90.5 -84l240 -379l197 201l69 -72l-211 -217l170 -270l-92 -74l-160 260l-36 -37 q-102 -107 -208 -158.5t-235 -51.5q-150 0 -228.5 84t-55.5 245zM182 313q-34 -223 189 -223q95 0 179.5 44t178.5 136l45 45l-239 392l-39 -33q-29 -26 -80.5 -67.5t-83.5 -69.5t-68 -65t-56 -76.5t-26 -82.5zM455 1038l112 -182q181 154 199 287q13 87 -18 126.5 t-113 39.5q-61 0 -106.5 -36.5t-53.5 -92.5z" />
<glyph unicode="'" horiz-adv-x="444" d="M221 991l62 463h100l-72 -463h-90z" />
<glyph unicode="(" horiz-adv-x="669" d="M127 182l106 731q32 220 130.5 386.5t240.5 246.5l45 -71q-115 -66 -198 -212.5t-113 -349.5l-107 -731q-57 -408 152 -555l-68 -76q-118 79 -168.5 248.5t-19.5 382.5z" />
<glyph unicode=")" horiz-adv-x="675" d="M-16 -373q116 70 198.5 218.5t112.5 359.5l100 690q30 211 -8 358t-133 215l63 78q118 -79 167 -256.5t16 -394.5l-99 -690q-32 -222 -131.5 -396t-240.5 -253z" />
<glyph unicode="*" horiz-adv-x="790" d="M188 1200l39 82l197 -68l31 220h88l-31 -220l213 68l14 -82l-217 -67l105 -179l-78 -53l-100 180l-156 -180l-60 53l152 179z" />
<glyph unicode="+" horiz-adv-x="1173" d="M84 735l14 101h447l63 434h103l-64 -434h449l-15 -101h-448l-68 -469h-102l67 469h-446z" />
<glyph unicode="," horiz-adv-x="366" d="M-72 -203q45 58 68.5 108.5t34.5 133.5l16 113h107l-7 -54q-11 -74 -26.5 -128t-38 -94t-41 -63.5t-51.5 -58.5z" />
<glyph unicode="-" horiz-adv-x="563" d="M76 522l14 107h365l-17 -107h-362z" />
<glyph unicode="." horiz-adv-x="487" d="M55 0l27 188h176l-27 -188h-176z" />
<glyph unicode="/" horiz-adv-x="636" d="M-59 -174l632 1567h113l-635 -1567h-110z" />
<glyph unicode="0" horiz-adv-x="1024" d="M88 360l96 666q27 186 142 286.5t284 100.5q157 0 247 -104t65 -283l-99 -666q-27 -188 -139.5 -284t-282.5 -96q-162 0 -251 100t-62 280zM201 360q-21 -138 37 -205t180 -67q114 0 193.5 69.5t99.5 202.5l96 666q21 139 -35 208t-178 69q-114 0 -195.5 -72.5 t-101.5 -204.5z" />
<glyph unicode="1" horiz-adv-x="675" d="M135 1282l17 111h423l-202 -1393h-113l184 1282h-309z" />
<glyph unicode="2" horiz-adv-x="905" d="M25 0l8 55q34 229 117 368.5t262 264.5q7 6 40 30.5t48.5 36t48 38.5t50 45.5t43 48t40.5 54.5t27.5 56t17.5 62q16 111 -46.5 167t-174.5 56q-65 0 -136 -43.5t-120 -105.5l-57 84q74 79 163 127.5t174 48.5q52 0 100.5 -12t91.5 -38t72.5 -63.5t42.5 -93.5t3 -123 q-7 -45 -23.5 -88.5t-34.5 -76.5t-51 -70.5t-54 -59.5t-63.5 -56t-60 -47t-61.5 -44q-10 -7 -15 -11q-140 -97 -215 -213t-104 -288h542l-16 -109h-659z" />
<glyph unicode="3" horiz-adv-x="956" d="M43 270l109 21q-11 -93 53.5 -147t163.5 -54q95 0 172 45.5t90 130.5l26 197q8 51 -10 92t-53.5 64.5t-78.5 36t-89 12.5h-64l15 106h61q56 0 115 23t109 74.5t59 119.5l16 111q14 106 -39 153.5t-163 47.5q-77 0 -152.5 -55t-91.5 -148l-103 16q24 130 134.5 213.5 t230.5 83.5q97 0 168 -32t108 -102t23 -171l-16 -113q-16 -103 -85.5 -176.5t-158.5 -101.5q88 -28 141 -92t39 -164l-31 -201q-13 -92 -72.5 -156.5t-140.5 -92t-176 -27.5q-139 0 -230.5 78.5t-78.5 207.5z" />
<glyph unicode="4" horiz-adv-x="968" d="M6 342l17 109l641 942h127l-136 -942h205l-14 -109h-207l-49 -342h-115l51 342h-520zM137 451h404l106 731h-16z" />
<glyph unicode="5" horiz-adv-x="980" d="M82 315l113 13q-15 -112 45.5 -176t171.5 -64q52 0 105.5 24.5t96.5 75.5t52 117l28 195q15 109 -42.5 170t-159.5 61h-306l160 662h531l-17 -111h-428l-108 -444h194q68 0 125.5 -24t98 -67t58.5 -108t7 -141l-29 -193q-11 -77 -48.5 -140t-90.5 -102.5t-115.5 -61 t-126.5 -21.5q-150 0 -241.5 88.5t-73.5 246.5z" />
<glyph unicode="6" horiz-adv-x="1013" d="M82 319l111 764q21 151 138 240.5t275 89.5q87 0 165.5 -36t125.5 -97l-78 -86q-35 51 -96.5 80t-130.5 29q-106 0 -189.5 -60t-97.5 -160l-45 -313q57 51 132 80t151 29q64 0 122.5 -20t103.5 -57.5t66.5 -98t10.5 -134.5l-37 -254q-10 -69 -38.5 -126t-69 -95 t-92 -64.5t-105.5 -38t-111 -11.5q-53 0 -102 13t-92 40.5t-72.5 67t-42 96t-2.5 122.5zM195 322q-9 -63 5.5 -110t47.5 -73t73.5 -38.5t88.5 -12.5q45 0 90.5 13.5t87 40t71.5 73.5t39 107l35 241q14 106 -52.5 158.5t-172.5 52.5q-95 0 -180 -58t-99 -153z" />
<glyph unicode="7" horiz-adv-x="759" d="M106 1278l17 115h686l-12 -86l-545 -1307h-123l541 1278h-564z" />
<glyph unicode="8" horiz-adv-x="1060" d="M96 287l25 170q13 91 75 160t146 106q-64 35 -97 107.5t-20 160.5l15 101q15 104 75 178t139.5 107.5t168.5 33.5q62 0 118 -20.5t99 -59t63.5 -101t9.5 -138.5l-14 -103q-13 -90 -67.5 -159.5t-126.5 -106.5q73 -37 115.5 -106t29.5 -160l-25 -170q-12 -81 -52 -142.5 t-98 -96t-123 -51.5t-136 -17q-68 0 -128 18.5t-108.5 54t-71.5 96.5t-12 138zM211 291q-9 -57 6.5 -98t50.5 -63t75.5 -32t88.5 -10q43 0 86 11t84.5 33t71 63.5t37.5 95.5l24 172q14 94 -48.5 149.5t-149.5 55.5h-41q-86 0 -166.5 -56.5t-93.5 -148.5zM336 983 q-13 -95 39.5 -149.5t134.5 -61.5h41q83 6 152 63t83 148l15 102q16 108 -43 161.5t-152 53.5q-88 0 -164 -55t-90 -160z" />
<glyph unicode="9" horiz-adv-x="1028" d="M125 121l65 76q32 -32 57 -51.5t75.5 -38.5t109.5 -19q62 0 119.5 20t105 69t58.5 120l41 291q-53 -52 -128 -79.5t-149 -27.5q-65 0 -123.5 19.5t-103.5 56t-66 96.5t-10 135l45 314q21 142 140 226.5t264 84.5q87 0 162.5 -36.5t119 -109.5t29.5 -165l-119 -813 q-11 -78 -50 -138.5t-95 -97t-120.5 -55t-133.5 -18.5q-87 0 -167.5 36.5t-125.5 104.5zM289 793q-11 -72 20 -120t82 -66.5t115 -18.5q90 0 174 55.5t98 147.5l43 307q14 95 -51 150t-162 55q-94 0 -177.5 -56t-96.5 -149z" />
<glyph unicode=":" horiz-adv-x="546" d="M98 0l31 211h164l-31 -211h-164zM223 856l31 209h162l-31 -209h-162z" />
<glyph unicode=";" horiz-adv-x="593" d="M78 -203q45 57 68 108t34 134l17 113h106l-6 -54q-11 -74 -26.5 -128t-38.5 -94t-41.5 -63.5t-51.5 -58.5zM268 848l33 217h160l-31 -217h-162z" />
<glyph unicode="&#x3c;" horiz-adv-x="1169" d="M86 494l918 540l32 -84l-755 -452l667 -435l-59 -83z" />
<glyph unicode="=" horiz-adv-x="1239" d="M84 512l14 102h1000l-15 -102h-999zM147 958l15 101h999l-14 -101h-1000z" />
<glyph unicode="&#x3e;" horiz-adv-x="1120" d="M27 61l745 439l-584 448l64 84l713 -532l-902 -525z" />
<glyph unicode="?" horiz-adv-x="700" d="M104 0l29 190h186l-28 -190h-187zM139 1274q150 139 295 139q142 0 207 -76t45 -215l-14 -102q-4 -30 -16.5 -58.5t-25 -48t-36.5 -43.5t-38 -36t-44.5 -35.5t-40.5 -32.5q-67 -57 -99.5 -103.5t-43.5 -119.5l-21 -150h-117l27 172q11 78 51.5 131.5t122.5 122.5 q3 3 22.5 18.5t25 20t22.5 19t23.5 22t20 21.5t19.5 24t14.5 23.5t12.5 27t6 27.5l12 94q30 187 -159 187q-97 0 -232 -113z" />
<glyph unicode="@" horiz-adv-x="1648" d="M86 524q18 125 61 275q34 128 108 241.5t174.5 198t231 133.5t269.5 49q183 0 326 -73.5t214.5 -206.5t47.5 -297q-36 -254 -127.5 -379t-260.5 -125q-62 0 -111.5 32t-66.5 87q-59 -66 -145 -107t-176 -41q-119 0 -171.5 61.5t-39.5 155.5q3 26 30 115.5t52 151.5 q47 131 165.5 222t252.5 91q111 0 171.5 -56.5t47.5 -150.5q-5 -44 -49 -164q-49 -145 -54 -174q-8 -57 23 -96t86 -39q107 0 181.5 102t105.5 318q32 221 -111.5 354t-402.5 133q-154 0 -298 -73t-245 -196.5t-139 -270.5q-53 -195 -62 -267q-20 -133 46.5 -239.5 t200 -164.5t308.5 -58q177 0 330 81l33 -75q-171 -92 -375 -92q-189 0 -342 70t-232.5 195.5t-56.5 278.5zM518 549q-20 -148 133 -148q99 0 190 63t120 157q3 8 23.5 62t28 76t19 61.5t15.5 68.5q9 69 -27.5 99t-118.5 30q-98 0 -191 -75.5t-126 -178.5 q-17 -48 -40.5 -126.5t-25.5 -88.5z" />
<glyph unicode="A" horiz-adv-x="989" d="M-47 0l588 1411h116l162 -1411h-119l-45 459h-397l-182 -459h-123zM303 565h338l-70 666z" />
<glyph unicode="B" horiz-adv-x="1042" d="M80 0l203 1393h327q60 0 113.5 -21t95.5 -60q41 -40 61 -106q12 -39 12 -84q0 -30 -5 -63l-10 -74q-13 -95 -66 -162.5t-125 -97.5q86 -38 130 -114q33 -56 32 -132q0 -27 -4 -57l-15 -100q-13 -84 -48.5 -147.5t-87 -100.5t-111 -55.5t-125.5 -18.5h-377zM209 104h252 q53 0 104.5 21t95.5 74t56 129l14 96q4 28 4 53q-1 83 -47 129q-60 60 -172 60h-225zM305 768h219q89 0 158.5 56t83.5 159l10 74q4 28 4 52q0 33 -8 59q-14 46 -44 70.5t-65.5 35t-78.5 10.5h-203z" />
<glyph unicode="C" horiz-adv-x="925" d="M78 350l98 678q26 177 149 281t289 104q108 0 191.5 -41.5t128.5 -120.5l-82 -84q-80 136 -248 136q-116 0 -206.5 -76.5t-108.5 -202.5l-96 -670q-4 -29 -4 -55q0 -91 51 -145q66 -68 190 -68q176 0 285 104l51 -75q-70 -73 -156.5 -104t-199.5 -31q-165 0 -261 97 q-76 77 -76 204q0 33 5 69z" />
<glyph unicode="D" horiz-adv-x="1091" d="M80 0l203 1393h311q170 -1 276 -103q86 -82 85 -213q0 -32 -5 -67l-92 -633q-28 -188 -157.5 -282.5t-313.5 -94.5h-307zM207 109h194q82 0 153.5 27t124.5 89.5t66 151.5l93 633q4 26 4 50q0 96 -62 152q-76 70 -202 70h-201z" />
<glyph unicode="E" horiz-adv-x="886" d="M82 0l203 1393h538l-16 -111h-426l-74 -516h328l-17 -109h-327l-80 -548h475l-16 -109h-588z" />
<glyph unicode="F" horiz-adv-x="778" d="M82 0l203 1393h536l-16 -111h-424l-72 -500h328l-14 -106h-328l-96 -676h-117z" />
<glyph unicode="G" horiz-adv-x="1024" d="M80 360l94 658q28 192 148 293.5t286 101.5q213 0 324 -133l-64 -88q-30 28 -47.5 42t-51.5 33t-76.5 27.5t-98.5 8.5q-109 0 -197.5 -75t-109.5 -212l-94 -654q-4 -25 -4 -48q0 -88 51 -149q64 -77 178 -77q170 0 270 74l66 452h-265l17 107h375l-88 -610 q-77 -62 -169.5 -96.5t-222.5 -34.5q-153 0 -249 110q-77 88 -77 208q0 30 5 62z" />
<glyph unicode="H" horiz-adv-x="1144" d="M80 0l203 1393h112l-96 -666h537l96 666h112l-200 -1393h-113l88 616h-536l-88 -616h-115z" />
<glyph unicode="I" horiz-adv-x="559" d="M121 0l201 1393h114l-203 -1393h-112z" />
<glyph unicode="J" horiz-adv-x="890" d="M-8 283l117 12q-3 -20 -3 -38q0 -64 40 -110q53 -59 141 -59q90 0 157.5 51t81.5 152l160 1102h113l-160 -1102q-22 -154 -121.5 -231.5t-245.5 -77.5q-131 0 -213 83q-69 70 -69 177q0 20 2 41z" />
<glyph unicode="K" horiz-adv-x="999" d="M82 0l203 1393h112l-104 -727l553 727h131l-485 -637l356 -756h-141l-308 664l-129 -146l-73 -518h-115z" />
<glyph unicode="L" horiz-adv-x="835" d="M82 0l203 1393h112l-186 -1284h518l-16 -109h-631z" />
<glyph unicode="M" horiz-adv-x="1357" d="M80 0l203 1393h125l239 -828l481 828h123l-200 -1393h-115l174 1188l-455 -799h-67l-223 795l-170 -1184h-115z" />
<glyph unicode="N" horiz-adv-x="1187" d="M80 0l203 1393h127l395 -1194l172 1194h110l-202 -1393h-125l-398 1200l-174 -1200h-108z" />
<glyph unicode="O" horiz-adv-x="1060" d="M88 362l96 666q26 180 146.5 282.5t290.5 102.5h32q105 0 185 -46.5t119 -134.5q27 -62 27 -137q0 -32 -5 -67l-96 -666q-27 -182 -146.5 -282t-292.5 -100h-28q-80 0 -146 26.5t-111 75t-65 120.5q-12 44 -11 93q0 32 5 67zM201 365q-5 -31 -5 -59q0 -90 49 -146 q64 -72 187 -72h29q115 0 202 75.5t107 201.5l94 661q5 32 5 60q1 89 -47 144q-62 73 -185 73h-31q-117 0 -204 -75.5t-105 -201.5z" />
<glyph unicode="P" horiz-adv-x="991" d="M82 0l203 1393h350q145 1 234 -103q70 -82 70 -204q0 -33 -5 -68l-16 -117q-26 -174 -135.5 -260t-266.5 -86h-240l-79 -555h-115zM291 662h233q104 0 183.5 62t97.5 185l14 103q4 29 4 55q1 86 -45 142q-60 73 -164 73h-233z" />
<glyph unicode="Q" horiz-adv-x="1054" d="M88 362l96 666q26 180 146.5 282.5t290.5 102.5h32q105 0 185 -46.5t119 -134.5q27 -62 27 -137q0 -32 -5 -67l-96 -666q-28 -185 -164 -292l92 -170l-80 -56l-96 174q-87 -38 -191 -38h-28q-80 0 -146 26.5t-111 75t-65 120.5q-11 44 -11 93q0 32 5 67zM201 365 q-5 -31 -5 -59q0 -90 49 -146q64 -72 187 -72h29q59 0 123 23l-90 163l81 58l93 -168q85 78 102 201l94 661q5 32 5 60q0 89 -47 144q-63 73 -185 73h-31q-117 0 -204 -75.5t-105 -201.5z" />
<glyph unicode="R" horiz-adv-x="956" d="M82 0l203 1393h329q154 1 232 -91q61 -71 62 -181q0 -31 -5 -64l-16 -113q-20 -134 -89 -209t-192 -100l195 -635h-127l-178 610h-213l-88 -610h-113zM297 717h229q104 6 167.5 61t78.5 160l19 119q3 22 3 42q0 73 -40 121q-52 62 -162 62h-213z" />
<glyph unicode="S" horiz-adv-x="878" d="M25 215l94 53q20 -94 87.5 -136t151.5 -42q91 0 165 66t89 168q2 33 4.5 56t-4.5 47t-12 40.5t-18.5 35t-24 31t-28.5 29t-32 28t-34 29t-35 31.5q-7 7 -23 20q-46 41 -70 63.5t-61 66.5t-54 81q-18 36 -28 88q-6 30 -5 61q0 24 3 48q24 165 125 248.5t252 83.5 q105 0 180.5 -50t112.5 -140l-88 -68q-56 150 -219 150q-100 0 -167.5 -56t-84.5 -166q-4 -25 -3 -48q0 -27 4 -49q9 -44 36 -79.5t53.5 -61t69.5 -61.5q10 -8 15.5 -12.5t14 -11.5t15.5 -13q26 -22 40 -34t37 -32.5t35.5 -34.5t30.5 -34.5t27.5 -37.5t21.5 -39.5t17 -44.5 t9.5 -48t3.5 -54.5t-5 -59.5q-23 -159 -126 -250.5t-253 -91.5q-69 0 -134 23.5t-117.5 77.5t-67.5 130z" />
<glyph unicode="T" horiz-adv-x="927" d="M121 1282l16 111h844l-14 -111h-361l-186 -1282h-113l187 1282h-373z" />
<glyph unicode="U" horiz-adv-x="1142" d="M125 362l149 1031h111l-149 -1031q-4 -29 -4 -55q0 -97 56 -151q72 -68 199 -68q108 0 197 73.5t107 200.5l149 1031h113l-150 -1031q-27 -190 -143.5 -286t-288.5 -96q-78 0 -145 23.5t-117.5 69t-73.5 120.5q-15 48 -15 104q0 31 5 65z" />
<glyph unicode="V" horiz-adv-x="864" d="M150 1393h124l74 -1211l434 1211h125l-528 -1393h-113z" />
<glyph unicode="W" horiz-adv-x="1343" d="M184 1393h121l-20 -1227l422 1227h106l61 -1229l345 1229h118l-413 -1393h-140l-51 1192l-407 -1192h-138z" />
<glyph unicode="X" horiz-adv-x="868" d="M-35 0l400 700l-170 693h129l129 -598l311 598h129l-385 -693l182 -700h-131l-135 604l-326 -604h-133z" />
<glyph unicode="Y" horiz-adv-x="854" d="M168 1393h129l121 -715l332 715h129l-424 -838l-80 -555h-113l80 557z" />
<glyph unicode="Z" horiz-adv-x="913" d="M-8 0l10 74l735 1208h-530l16 111h664l-13 -78l-731 -1206h580l-16 -109h-715z" />
<glyph unicode="[" horiz-adv-x="544" d="M29 -340l252 1733h264l-15 -101h-155l-221 -1536h145l-14 -96h-256z" />
<glyph unicode="\" horiz-adv-x="634" d="M174 1393h113l182 -1393h-113z" />
<glyph unicode="]" horiz-adv-x="540" d="M-35 -324l12 99h148l221 1515h-149l14 103h260l-248 -1717h-258z" />
<glyph unicode="^" horiz-adv-x="798" d="M141 918l365 497l209 -497l-101 -13l-135 330l-239 -330z" />
<glyph unicode="_" horiz-adv-x="1071" d="M-12 -147l14 96h834l-15 -96h-833z" />
<glyph unicode="`" horiz-adv-x="479" d="M197 1374l108 72l141 -299l-81 -49z" />
<glyph unicode="a" horiz-adv-x="868" d="M45 244l37 260l504 106l26 178q4 26 4 48q0 53 -23 79q-32 37 -114 37q-69 0 -141.5 -24t-116.5 -51l-28 92q58 37 146 65.5t167 28.5q118 0 180 -70q46 -53 46 -141q0 -29 -5 -61l-115 -791h-102l10 111q-65 -74 -122 -95.5t-130 -21.5q-112 0 -176 66q-50 52 -51 135 q0 23 4 49zM158 246q-2 -14 -2 -27q0 -53 32 -84q40 -39 113 -39q34 0 71.5 11t73.5 33t62.5 61t32.5 88l32 229l-389 -88z" />
<glyph unicode="b" horiz-adv-x="925" d="M35 0l205 1413h112l-67 -475q47 63 117 95t145 32q129 -1 201 -89q56 -69 56 -173q0 -31 -5 -64l-64 -434q-23 -158 -115 -240.5t-231 -82.5q-73 0 -134.5 32t-90.5 99l-25 -113h-104zM190 299q-3 -23 -3 -43q-1 -74 45 -116q58 -54 157 -54q87 0 152.5 57.5t79.5 159.5 l65 440q3 22 3 42q0 73 -37 117q-47 56 -136 56q-94 0 -171 -55.5t-91 -157.5z" />
<glyph unicode="c" horiz-adv-x="772" d="M49 276l70 486q21 142 123 222.5t243 80.5q84 0 149.5 -39.5t92.5 -103.5l-76 -72q-49 104 -176 104q-88 0 -160.5 -54t-85.5 -144l-67 -473q-3 -18 -3 -34q0 -32 11 -59q16 -40 48 -61t66.5 -31t69.5 -10h15q104 0 188 78l49 -80q-110 -104 -274 -104q-58 0 -111 17 t-97 51t-65 92q-14 38 -14 84q0 24 4 50z" />
<glyph unicode="d" horiz-adv-x="927" d="M66 305l63 434q21 154 115 240t229 86q73 0 135.5 -32t91.5 -95l68 475h113l-205 -1413h-103l9 113q-96 -131 -267 -131q-130 0 -201 86q-54 65 -54 167q0 33 6 70zM178 303q-4 -26 -4 -49q0 -71 36 -113q46 -55 140 -55q90 0 167 56.5t91 156.5l66 446q3 21 3 39 q-1 76 -47 120q-58 54 -157 54q-85 0 -150.5 -58.5t-80.5 -156.5z" />
<glyph unicode="e" horiz-adv-x="860" d="M55 299l68 467q13 89 71 158t137.5 104t164.5 35q123 0 204 -86q67 -71 67 -169q0 -21 -3 -42l-35 -244h-528l-33 -221q-3 -19 -3 -36q0 -77 52 -120q63 -53 168 -53q73 0 134 22t99 58l39 -82q-62 -56 -131.5 -79t-160.5 -23q-64 0 -123.5 20.5t-105.5 57.5 q-48 38 -70 98q-15 41 -15 88q0 23 4 47zM215 621h414l22 143q2 15 2 29q0 61 -40 107q-49 56 -134 56q-88 0 -159.5 -55t-83.5 -141z" />
<glyph unicode="f" horiz-adv-x="489" d="M51 0l137 946h-104l14 98h105l18 132q21 140 106.5 213t198.5 73q29 0 67.5 -10.5t61.5 -28.5l-37 -94q-31 25 -92 25q-73 0 -126 -47t-66 -133l-19 -130h191l-14 -98h-191l-137 -946h-113z" />
<glyph unicode="g" horiz-adv-x="917" d="M-29 -207q13 96 73.5 159t154.5 89q-53 26 -75 64q-16 27 -16 64q0 15 3 32q6 48 37.5 89.5t76.5 65.5q-107 66 -107 214q0 31 5 67l14 98q24 158 127 242t242 84q99 0 164 -41l221 53l16 -92l-159 -33q40 -65 40 -150q0 -28 -4 -57l-16 -108q-22 -157 -120.5 -238.5 t-235.5 -81.5q-50 0 -90 9q-40 -11 -70.5 -40.5t-36.5 -68.5q-1 -7 -1 -13q0 -28 18 -48q22 -26 50 -37t70 -21l361 -94l-31 -211q-10 -65 -46.5 -114.5t-90.5 -77.5t-115 -42t-127 -14h-29q-66 0 -123 14t-102 43t-67 79q-14 34 -14 76q0 19 3 40zM84 -199q-2 -13 -2 -25 q0 -29 11 -52q15 -32 47.5 -47.5t69 -22t81.5 -6.5h35q86 0 155 33.5t88 109.5l19 129l-248 70q-47 -3 -84 -11.5t-75 -28t-63.5 -57.5t-33.5 -92zM236 629q-4 -24 -4 -46q0 -69 38 -113q48 -56 150 -56q87 0 153 53.5t82 161.5l15 110q1 13 1 25q0 86 -44 132 q-50 54 -135 54q-84 0 -155 -55t-85 -156z" />
<glyph unicode="h" horiz-adv-x="987" d="M63 0l205 1413h113l-74 -514q57 81 137 122.5t168 41.5q124 -1 184 -79q45 -59 45 -152q0 -31 -5 -66l-111 -766h-115l111 762q3 25 3 46q0 60 -26 96q-36 48 -118 48q-107 0 -196.5 -68.5t-102.5 -168.5l-105 -715h-113z" />
<glyph unicode="i" horiz-adv-x="497" d="M92 0l152 1044h112l-149 -1044h-115zM268 1280l19 133h131l-19 -133h-131z" />
<glyph unicode="j" horiz-adv-x="512" d="M-170 -307q147 52 209 136t90 267l137 948h113l-139 -956q-22 -155 -67.5 -250.5t-121.5 -151.5t-205 -96zM291 1278l20 135h121l-18 -135h-123z" />
<glyph unicode="k" horiz-adv-x="788" d="M63 0l205 1413h111l-115 -795h70l328 426h118l-356 -471l235 -573h-120l-207 508h-84l-74 -508h-111z" />
<glyph unicode="l" horiz-adv-x="497" d="M92 0l205 1413h115l-205 -1413h-115z" />
<glyph unicode="m" horiz-adv-x="1538" d="M66 0l151 1044h98l-14 -141q54 72 135.5 116t169.5 44q87 0 145.5 -37.5t75.5 -112.5q122 150 316 150q125 0 187 -77q47 -59 47 -150q0 -28 -5 -60l-112 -776h-115l110 762q3 21 3 40q0 60 -28 100q-38 52 -120 52q-107 0 -190 -59.5t-97 -163.5l-106 -731h-113l115 778 q3 21 3 39q0 57 -28 91q-38 46 -116 46q-91 0 -187 -74t-108 -165l-105 -715h-112z" />
<glyph unicode="n" horiz-adv-x="987" d="M63 0l152 1044h102l-16 -155q123 174 309 174q122 1 182 -81q45 -60 44 -156q0 -33 -5 -70l-108 -756h-115l109 748q4 29 4 54q0 62 -26 98q-37 52 -120 52q-89 0 -184 -70t-108 -167l-105 -715h-115z" />
<glyph unicode="o" horiz-adv-x="890" d="M51 283l72 485q20 134 127 214.5t244 80.5q131 -1 218 -83q71 -68 71 -167q0 -22 -3 -45l-69 -485q-21 -137 -129.5 -218t-245.5 -81q-128 0 -216 84q-72 69 -72 169q0 22 3 46zM166 283q-2 -17 -2 -32q0 -66 45 -108q56 -51 143 -51q52 0 104 22.5t91 67t47 101.5 l70 483q2 17 2 32q0 64 -44 104q-56 50 -145 50q-83 0 -156.5 -51.5t-84.5 -134.5z" />
<glyph unicode="p" horiz-adv-x="911" d="M-45 -451l217 1495h107l-11 -116q48 68 118.5 101.5t145.5 33.5q131 0 202 -88q54 -66 54 -169q0 -34 -6 -71l-61 -434q-23 -155 -116 -238t-230 -83q-74 0 -135 30t-90 92l-80 -553h-115zM176 295q-3 -21 -3 -41q0 -77 45 -118q57 -52 157 -52q83 0 150.5 59t80.5 156 l64 436q4 26 4 49q0 71 -36 114q-46 58 -138 58q-91 0 -167.5 -57t-90.5 -158z" />
<glyph unicode="q" horiz-adv-x="911" d="M66 301l61 434q23 157 116.5 242.5t229.5 85.5q73 0 135.5 -31.5t91.5 -97.5l25 110h102l-217 -1495h-112l80 553q-92 -122 -263 -122q-130 0 -201 86q-54 66 -54 166q0 33 6 69zM178 297q-4 -25 -4 -47q0 -69 36 -111q47 -55 136 -55q95 0 171.5 54.5t90.5 156.5l66 446 q3 20 3 38q0 77 -48 121q-59 56 -154 56q-88 0 -153 -58t-80 -161z" />
<glyph unicode="r" horiz-adv-x="581" d="M74 0l149 1044h103l-19 -182q38 88 101 145.5t137 57.5q30 0 55 -14l-29 -123q-19 8 -53 8q-57 0 -110.5 -51t-88 -126.5t-47.5 -156.5l-86 -602h-112z" />
<glyph unicode="s" horiz-adv-x="751" d="M4 111l76 79q71 -106 203 -106q78 0 130.5 40.5t63.5 123.5q4 23 4 44q-1 50 -21 82q-28 46 -134 101q-114 59 -157 129q-32 52 -32 124q0 25 4 52q11 76 42.5 133.5t75.5 89.5t90.5 47t96.5 15q143 0 240 -94l-63 -88q-43 40 -81 57.5t-104 17.5q-70 0 -120.5 -43.5 t-63.5 -132.5q-3 -20 -3 -38q0 -50 22 -84q30 -46 120 -91q129 -63 171 -137q31 -54 31 -124q0 -27 -5 -56q-22 -137 -108.5 -204.5t-207.5 -67.5q-79 0 -152.5 31.5t-117.5 99.5z" />
<glyph unicode="t" horiz-adv-x="602" d="M119 944l14 100h121l41 277h111l-41 -277h174l-15 -100h-174l-102 -711q-3 -23 -3 -41q0 -42 16 -62q23 -28 83 -28q66 0 123 33l25 -96q-92 -45 -181 -45q-183 0 -183 167q0 27 5 58l105 725h-119z" />
<glyph unicode="u" horiz-adv-x="985" d="M115 279l110 765h113l-111 -765q-3 -21 -3 -39q0 -70 42 -106q52 -46 146 -46q86 0 155 49t82 142l111 765h114l-112 -765q-21 -149 -123 -224t-244 -75q-64 0 -118.5 19t-94.5 55q-42 36 -60 94q-12 36 -11 79q0 25 4 52z" />
<glyph unicode="v" horiz-adv-x="823" d="M96 1044h121l117 -878l368 878h117l-457 -1044h-106z" />
<glyph unicode="w" horiz-adv-x="1232" d="M117 1044h116l41 -880l332 880h96l82 -878l295 878h115l-381 -1044h-108l-76 846l-322 -846h-112z" />
<glyph unicode="x" horiz-adv-x="790" d="M-59 0l358 526l-188 518h125l145 -430l264 430h133l-342 -518l205 -526h-127l-162 436l-286 -436h-125z" />
<glyph unicode="y" horiz-adv-x="817" d="M-49 -436l8 102q72 0 138.5 49.5t107.5 157.5l37 84l-138 1087h121l105 -909l352 909h125l-479 -1157q-65 -160 -153 -241t-224 -82z" />
<glyph unicode="z" horiz-adv-x="782" d="M-2 0l10 80l537 866h-400l15 98h528l-8 -69l-541 -871h453l-14 -104h-580z" />
<glyph unicode="{" horiz-adv-x="618" d="M121 109l102 391l-69 100l102 121l2 342q5 282 326 444l30 -82q-117 -61 -184 -151.5t-70 -206.5l-4 -365l-84 -96l58 -84l-109 -418q-30 -116 12 -209.5t140 -154.5l-56 -82q-271 162 -196 451z" />
<glyph unicode="|" horiz-adv-x="471" d="M41 -301l246 1694h100l-246 -1694h-100z" />
<glyph unicode="}" horiz-adv-x="626" d="M27 -260q127 79 193 166t69 198l12 418l80 84l-51 94l98 367q55 193 -154 358l54 80q133 -89 186 -194.5t12 -247.5l-96 -342l70 -121l-103 -100l-8 -391q-3 -133 -83 -242.5t-249 -206.5z" />
<glyph unicode="~" horiz-adv-x="802" d="M188 1272q86 125 185 125q44 0 125 -49t125 -50q40 2 88 68l65 -47q-80 -123 -172 -123q-37 0 -73 14.5t-60.5 32.5t-55.5 32.5t-59 14.5q-57 0 -104 -71z" />
<glyph unicode="&#xa1;" horiz-adv-x="501" d="M53 -362l160 952h109l-117 -952h-152zM236 885l20 149h156l-23 -149h-153z" />
<glyph unicode="&#xa2;" horiz-adv-x="854" d="M53 276l70 486q21 142 123 222.5t243 80.5h19l76 254l92 -14l-80 -258q95 -38 135 -125l-76 -72q-49 104 -176 104q-88 0 -160.5 -54t-85.5 -144l-67 -473q-8 -53 8 -93t48 -61t66.5 -31t69.5 -10q113 -6 203 78l49 -80q-112 -104 -274 -104q-23 0 -35 2l-74 -248l-92 14 l76 250q-84 31 -129 99.5t-29 176.5z" />
<glyph unicode="&#xa3;" horiz-adv-x="964" d="M74 0l14 90q82 1 140.5 25t93 70t52 102.5t23.5 134.5l13 190h-228l15 99h217l18 295q17 179 136 289t278 110l-15 -109q-107 0 -190.5 -78.5t-93.5 -203.5l-19 -303h242l-14 -99h-232q-2 -41 -4.5 -88.5t-3.5 -68.5t-2 -23q-9 -108 -43.5 -188t-118.5 -135h402l-17 -109 h-663z" />
<glyph unicode="&#xa5;" horiz-adv-x="870" d="M-8 322l12 86h309l21 149l-4 21h-301l12 86h270l-151 729h129l121 -715l331 715h129l-370 -729h331l-12 -86h-360l-13 -23l-20 -147h369l-13 -86h-368l-47 -322h-113l47 322h-309z" />
<glyph unicode="&#xa6;" horiz-adv-x="319" d="M-18 -233l96 665h94l-98 -665h-92zM123 741l96 670h94l-98 -670h-92z" />
<glyph unicode="&#xa7;" horiz-adv-x="1081" d="M-2 -252l88 49q20 -73 96 -119.5t174 -46.5q108 0 195.5 61.5t103.5 168.5q6 41 -2 79t-23.5 67t-45 58.5t-56 50t-69 44.5t-70.5 38t-74 35q-47 23 -78.5 41.5t-70 51t-59 68t-31.5 88.5t-2 116q14 95 82 169t137 89q-58 85 -39 221q24 163 137.5 248.5t278.5 85.5 q119 0 207 -53.5t120 -145.5l-84 -53q-25 73 -91 113.5t-165 40.5q-108 0 -197 -66.5t-104 -167.5q-7 -52 5 -96t34 -75t60.5 -60.5t72 -48t78.5 -42.5q32 -16 47 -24q74 -40 117.5 -68.5t90.5 -73.5t64 -100.5t7 -123.5q-28 -219 -219 -285q62 -93 43 -219 q-22 -154 -138.5 -241t-273.5 -87q-121 0 -218 59t-128 154zM172 550.5q0 -22.5 4 -42t9.5 -36t16 -31.5t21.5 -27.5t27 -24.5t30.5 -21.5t35.5 -20.5t38 -19t41 -19q179 -83 252 -151q64 6 119.5 62.5t64.5 119.5q8 57 -1.5 98t-46 77.5t-76.5 62t-119 67.5 q-150 69 -226 141q-68 -6 -122.5 -62.5t-63.5 -125.5q-4 -25 -4 -47.5z" />
<glyph unicode="&#xa8;" horiz-adv-x="692" d="M182 1184l23 145h129l-23 -145h-129zM516 1184l23 145h129l-23 -145h-129z" />
<glyph unicode="&#xa9;" horiz-adv-x="1646" d="M119 713q29 201 145 366t288 258t361 93q106 0 204.5 -36t175 -103t129.5 -154.5t74.5 -197.5t4.5 -226q-29 -202 -145.5 -366t-288 -255.5t-360.5 -91.5q-135 0 -253.5 56t-199 151t-118.5 228t-17 278zM205 713q-26 -176 34.5 -320.5t188 -225.5t293.5 -81 q155 0 306 83.5t257.5 229.5t130.5 314q19 132 -11.5 249.5t-99.5 200t-174 130.5t-229 48q-157 0 -308.5 -83.5t-257.5 -229t-130 -315.5zM442 649l15 96q20 141 142 239.5t273 98.5q90 0 164.5 -33t118.5 -100l-68 -71q-30 49 -94 78.5t-133 29.5q-107 0 -200.5 -73.5 t-106.5 -168.5l-14 -96q-17 -110 53.5 -177t187.5 -69q65 0 138.5 25t121.5 68l39 -76q-61 -54 -144.5 -82.5t-168.5 -28.5q-154 0 -249 98t-75 242z" />
<glyph unicode="&#xaa;" horiz-adv-x="698" d="M154 954l20 148l369 55l4 33q11 74 -18.5 102.5t-94.5 28.5q-34 0 -82.5 -16t-81.5 -33l-22 82q38 22 95 39t108 18q99 0 153 -48.5t41 -145.5l-63 -429h-74v56q-75 -60 -174 -60q-83 0 -136.5 49.5t-43.5 120.5zM246 954q-5 -31 27.5 -54t82.5 -23q48 0 98 23.5t56 57.5 l16 119l-268 -39z" />
<glyph unicode="&#xab;" horiz-adv-x="937" d="M68 356l364 369l45 -70l-280 -295l194 -290l-63 -70zM397 356l363 369l43 -70l-277 -295l193 -290l-64 -70z" />
<glyph unicode="&#xac;" horiz-adv-x="909" d="M100 586l15 94h663l-41 -295h-92l29 201h-574z" />
<glyph unicode="&#xad;" horiz-adv-x="563" d="M76 522l14 107h365l-17 -107h-362z" />
<glyph unicode="&#xae;" horiz-adv-x="1646" d="M119 713q22 152 95 285.5t179.5 228t242 149t277.5 54.5q134 0 252.5 -57t199 -152t119 -229t17.5 -279q-29 -203 -145.5 -367t-287.5 -255t-361 -91q-136 0 -254.5 56t-199 150.5t-118 227.5t-16.5 279zM205 713q-26 -178 34 -322t187.5 -224.5t294.5 -80.5 q156 0 307 83t257 228.5t130 315.5q19 132 -11.5 249.5t-99.5 200t-174 130.5t-229 48q-158 0 -309.5 -83.5t-257 -229t-129.5 -315.5zM506 315l115 793h311q91 0 148 -66t44 -157l-4 -31q-12 -81 -69.5 -136t-141.5 -67l154 -336h-113l-145 330h-160l-47 -330h-92zM657 729 h211q55 0 106 35t58 88l4 31q8 56 -29.5 96.5t-97.5 40.5h-211z" />
<glyph unicode="&#xaf;" horiz-adv-x="958" d="M201 1303l12 83h721l-12 -83h-721z" />
<glyph unicode="&#xb0;" horiz-adv-x="675" d="M178 1124l12 84q12 89 83.5 146t164.5 59q93 -2 148.5 -60t42.5 -145l-13 -84q-12 -88 -84.5 -144t-164.5 -56q-88 0 -144.5 57.5t-44.5 142.5zM268 1120q-4 -45 32 -76.5t81 -31.5q44 0 89.5 32.5t51.5 75.5l15 92q6 45 -30.5 78t-80.5 33t-90.5 -33.5t-52.5 -77.5z" />
<glyph unicode="&#xb1;" horiz-adv-x="1105" d="M14 0l15 92h856l-15 -92h-856zM113 629l14 96h362l52 356h98l-51 -356h368l-14 -96h-369l-55 -381h-98l55 381h-362z" />
<glyph unicode="&#xb2;" horiz-adv-x="690" d="M121 670l10 82q8 55 29.5 99t57.5 77.5t68 55t83 50.5q75 34 123.5 73.5t56.5 98.5q9 59 -18 85t-87 26q-52 0 -105 -28t-91 -75l-49 64q50 60 123 96.5t145 36.5q106 0 150.5 -53.5t31.5 -143.5q-6 -46 -27 -84t-55.5 -67.5t-63.5 -48t-73 -41.5q-82 -44 -131 -91 t-61 -118h378l-14 -94h-481z" />
<glyph unicode="&#xb3;" horiz-adv-x="657" d="M129 838l84 18q-4 -55 39.5 -86t112.5 -31q58 0 98 26t47 79l6 30q7 56 -31.5 87.5t-95.5 31.5h-90l12 88h82q143 0 160 115l2 16q8 62 -26.5 85.5t-96.5 23.5q-60 0 -108 -31.5t-62 -91.5l-72 23q19 89 95 140.5t168 51.5t152 -51.5t46 -147.5l-2 -14q-6 -42 -21 -72.5 t-37.5 -48t-42 -27t-44.5 -16.5q50 -16 83.5 -55t24.5 -107l-4 -32q-14 -100 -82.5 -147.5t-169.5 -47.5q-95 0 -162.5 53.5t-64.5 137.5z" />
<glyph unicode="&#xb4;" horiz-adv-x="493" d="M174 1151l234 283l77 -64l-241 -264z" />
<glyph unicode="&#xb6;" horiz-adv-x="1040" d="M166 1040l10 70q18 122 110.5 201t235.5 82h408l-201 -1393h-86l191 1313h-175l-188 -1313h-88l111 770h-62q-131 0 -207.5 72.5t-58.5 197.5z" />
<glyph unicode="&#xb7;" horiz-adv-x="380" d="M113 408l26 188h176l-26 -188h-176z" />
<glyph unicode="&#xb8;" horiz-adv-x="460" d="M-45 -432q51 15 102 49t58 80q3 21 -0.5 39t-10.5 30.5t-18.5 23.5t-22.5 18t-24 12.5t-22 8t-17.5 5t-9.5 2.5l61 164h94l-47 -104l2 -1q11 -5 21 -10t30.5 -21.5t33.5 -35.5t21 -50.5t3 -68.5q-11 -79 -73.5 -132t-160.5 -79z" />
<glyph unicode="&#xb9;" horiz-adv-x="550" d="M164 1292l16 101h324l-103 -707h-100l88 606h-225z" />
<glyph unicode="&#xba;" horiz-adv-x="741" d="M162 1006l26 192q13 92 96.5 153.5t186.5 61.5q99 0 166 -63t55 -152l-28 -194q-13 -93 -95.5 -153t-187.5 -60q-99 0 -165.5 62.5t-53.5 152.5zM254 1006q-4 -59 34.5 -92t106.5 -33q61 0 113 35.5t59 87.5l29 196q6 55 -34 88t-103 33t-116 -34t-60 -87z" />
<glyph unicode="&#xbb;" horiz-adv-x="925" d="M4 70l275 290l-191 295l64 70l258 -369l-363 -356zM332 70l276 290l-192 295l63 70l258 -369l-362 -356z" />
<glyph unicode="&#xbc;" horiz-adv-x="1280" d="M51 0l1034 1393h119l-1030 -1393h-123zM180 1292l17 101h323l-102 -707h-101l89 606h-226zM571 176l13 74l340 483h131l-70 -475h113l-11 -82h-114l-25 -170h-96l25 170h-306zM684 258h205l51 354h-10z" />
<glyph unicode="&#xbd;" horiz-adv-x="1366" d="M35 0l1034 1393h119l-1030 -1393h-123zM180 1292l17 101h323l-102 -707h-101l89 606h-226zM666 -6l10 82q7 45 23.5 83t36.5 64.5t52 52.5t58.5 42.5t66.5 39.5q35 16 60.5 30t53.5 35.5t45.5 48.5t21.5 58q9 59 -18 85t-87 26q-53 0 -105.5 -27.5t-90.5 -74.5l-50 63 q50 59 123.5 96t145.5 37q106 0 150.5 -53.5t31.5 -142.5q-6 -46 -27 -84.5t-55.5 -68t-64 -48t-72.5 -41.5q-83 -44 -132 -91t-61 -118h379l-14 -94h-481z" />
<glyph unicode="&#xbe;" horiz-adv-x="1331" d="M119 838l84 18q-4 -55 39 -86t112 -31q58 0 98.5 26t47.5 79l6 30q7 56 -31.5 87.5t-95.5 31.5h-90l12 88h82q143 0 160 115l2 16q8 62 -26.5 85.5t-96.5 23.5q-60 0 -108 -31.5t-62 -91.5l-72 23q19 89 94.5 140.5t167.5 51.5t152.5 -51.5t46.5 -147.5l-2 -14 q-6 -42 -21 -72.5t-37.5 -48t-42 -27t-44.5 -16.5q50 -16 83.5 -55t24.5 -107l-4 -32q-14 -100 -82.5 -147.5t-169.5 -47.5q-95 0 -162.5 53.5t-64.5 137.5zM131 0l1034 1393h119l-1030 -1393h-123zM629 174l12 74l340 483h131l-70 -475h113l-10 -82h-115l-24 -170h-97 l25 170h-305zM741 256h205l51 354h-10z" />
<glyph unicode="&#xbf;" horiz-adv-x="798" d="M-16 -119l18 131q7 47 37 91t55 66.5t81 66.5l15 12q53 39 83 65t58 69.5t36 92.5l20 152h115l-25 -172q-6 -39 -23 -73.5t-49 -68t-57.5 -55.5t-71.5 -57q-48 -37 -74.5 -60.5t-52 -59t-30.5 -69.5l-19 -125q-7 -50 2.5 -86.5t27.5 -55.5t47 -30t52 -13.5t52 -2.5 q59 0 131 34.5t129 80.5l39 -84q-64 -57 -149 -99.5t-173 -42.5q-152 0 -223 76.5t-51 216.5zM377 844l29 192h184l-27 -192h-186z" />
<glyph unicode="&#xc0;" horiz-adv-x="991" d="M-47 0l588 1411h116l162 -1411h-119l-45 459h-397l-182 -459h-123zM303 565h338l-70 666zM446 1794l109 72l141 -299l-82 -49z" />
<glyph unicode="&#xc1;" horiz-adv-x="991" d="M-47 0l588 1411h116l162 -1411h-119l-45 459h-397l-182 -459h-123zM303 565h338l-70 666zM549 1556l233 283l78 -63l-242 -265z" />
<glyph unicode="&#xc2;" horiz-adv-x="991" d="M-47 0l588 1411h116l162 -1411h-119l-45 459h-397l-182 -459h-123zM303 565h338l-70 666zM365 1569l268 170l225 -170l-59 -68l-178 129l-218 -127z" />
<glyph unicode="&#xc3;" horiz-adv-x="991" d="M-47 0l588 1411h116l162 -1411h-119l-45 459h-397l-182 -459h-123zM303 565h338l-70 666zM324 1577q43 63 87 94t97 31q44 0 125 -48.5t125 -49.5q41 2 88 67l65 -47q-80 -123 -172 -123q-46 0 -90 23.5t-83.5 47t-73.5 23.5q-58 0 -105 -71z" />
<glyph unicode="&#xc4;" horiz-adv-x="991" d="M-47 0l588 1411h116l162 -1411h-119l-45 459h-397l-182 -459h-123zM303 565h338l-70 666zM383 1569l23 145h129l-23 -145h-129zM717 1569l22 145h129l-22 -145h-129z" />
<glyph unicode="&#xc5;" horiz-adv-x="991" d="M-47 0l588 1411h116l162 -1411h-119l-45 459h-397l-182 -459h-123zM303 565h338l-70 666zM471 1663q9 68 61.5 113t116.5 45q60 0 102 -46t33 -112q-9 -68 -62.5 -114t-119.5 -46q-61 0 -100.5 47.5t-30.5 112.5zM543 1659q-4 -36 17 -60t54 -24t62 24.5t33 59.5 q5 36 -15 62t-55 26q-31 0 -60.5 -26.5t-35.5 -61.5z" />
<glyph unicode="&#xc6;" horiz-adv-x="1675" d="M-72 0l992 1393h667l-16 -111h-510l-74 -508h420l-16 -106h-418l-82 -559h561l-16 -109h-674l59 406h-471l-289 -406h-133zM420 512h416l110 754z" />
<glyph unicode="&#xc7;" horiz-adv-x="1009" d="M82 350l98 678q26 177 149 281t289 104q108 0 190.5 -41.5t129.5 -120.5l-82 -84q-83 136 -248 136q-116 0 -206.5 -76.5t-108.5 -202.5l-96 -670q-19 -131 47 -199.5t190 -68.5q176 0 285 104l51 -75q-121 -124 -319 -133l-37 -86l7 -4q7 -3 15 -7.5t20 -13t22 -19 t20.5 -25t16 -32t9 -39.5t-1.5 -47q-10 -79 -72 -132t-159 -79l-23 70q51 15 102 49t58 80q1 20 0.5 35t-8.5 28.5t-14.5 23t-18.5 17.5t-21 13t-21 9.5t-18.5 6.5t-14.5 4l-9 2l55 148q-147 14 -223.5 109t-52.5 257z" />
<glyph unicode="&#xc8;" d="M82 0l203 1393h538l-16 -111h-426l-74 -516h328l-17 -109h-327l-80 -548h475l-16 -109h-588zM434 1776l109 71l141 -299l-82 -49z" />
<glyph unicode="&#xc9;" d="M82 0l203 1393h538l-16 -111h-426l-74 -516h328l-17 -109h-327l-80 -548h475l-16 -109h-588zM537 1538l233 283l78 -64l-242 -264z" />
<glyph unicode="&#xca;" d="M82 0l203 1393h538l-16 -111h-426l-74 -516h328l-17 -109h-327l-80 -548h475l-16 -109h-588zM352 1550l269 170l225 -170l-60 -67l-178 129l-217 -127z" />
<glyph unicode="&#xcb;" d="M82 0l203 1393h538l-16 -111h-426l-74 -516h328l-17 -109h-327l-80 -548h475l-16 -109h-588zM369 1550l22 146h129l-22 -146h-129zM702 1550l23 146h129l-23 -146h-129z" />
<glyph unicode="&#xcc;" horiz-adv-x="559" d="M121 0l201 1393h114l-203 -1393h-112zM236 1776l108 71l141 -299l-82 -49z" />
<glyph unicode="&#xcd;" horiz-adv-x="559" d="M121 0l201 1393h114l-203 -1393h-112zM334 1538l234 283l77 -64l-241 -264z" />
<glyph unicode="&#xce;" horiz-adv-x="559" d="M121 0l201 1393h114l-203 -1393h-112zM156 1550l268 170l225 -170l-59 -67l-178 129l-217 -127z" />
<glyph unicode="&#xcf;" horiz-adv-x="559" d="M121 0l201 1393h114l-203 -1393h-112zM172 1551l23 145h129l-23 -145h-129zM506 1551l23 145h129l-23 -145h-129z" />
<glyph unicode="&#xd0;" horiz-adv-x="1198" d="M78 651l14 105h172l92 643h328q207 0 325 -113t93 -280l-88 -617q-26 -183 -166 -286t-369 -103h-325l94 651h-170zM285 109h211q172 0 279 76.5t126 207.5l88 608q19 128 -64 207.5t-255 79.5h-211l-78 -532h242l-15 -105h-243z" />
<glyph unicode="&#xd1;" horiz-adv-x="1187" d="M72 0l202 1393h127l396 -1194l172 1194h110l-202 -1393h-125l-398 1200l-174 -1200h-108zM416 1559q85 124 184 124q44 0 125 -48.5t125 -49.5q40 2 88 68l66 -47q-80 -123 -173 -123q-46 0 -90 23.5t-83.5 47t-73.5 23.5q-58 0 -105 -72z" />
<glyph unicode="&#xd2;" horiz-adv-x="1058" d="M88 362l96 666q26 180 146.5 282.5t290.5 102.5h32q105 0 185 -46.5t119 -135t22 -203.5l-96 -666q-27 -182 -146.5 -282t-292.5 -100h-28q-80 0 -146 26.5t-111 75t-64.5 121t-6.5 159.5zM201 365q-20 -132 44 -204.5t187 -72.5h29q115 0 202 75.5t107 201.5l94 661 q20 131 -42.5 204t-184.5 73h-31q-117 0 -204 -75.5t-105 -201.5zM481 1796l109 72l141 -299l-82 -49z" />
<glyph unicode="&#xd3;" horiz-adv-x="1058" d="M88 362l96 666q26 180 146.5 282.5t290.5 102.5h32q105 0 185 -46.5t119 -135t22 -203.5l-96 -666q-27 -182 -146.5 -282t-292.5 -100h-28q-80 0 -146 26.5t-111 75t-64.5 121t-6.5 159.5zM201 365q-20 -132 44 -204.5t187 -72.5h29q115 0 202 75.5t107 201.5l94 661 q20 131 -42.5 204t-184.5 73h-31q-117 0 -204 -75.5t-105 -201.5zM584 1559l233 282l78 -63l-242 -265z" />
<glyph unicode="&#xd4;" horiz-adv-x="1058" d="M88 362l96 666q26 180 146.5 282.5t290.5 102.5h32q105 0 185 -46.5t119 -135t22 -203.5l-96 -666q-27 -182 -146.5 -282t-292.5 -100h-28q-80 0 -146 26.5t-111 75t-64.5 121t-6.5 159.5zM201 365q-20 -132 44 -204.5t187 -72.5h29q115 0 202 75.5t107 201.5l94 661 q20 131 -42.5 204t-184.5 73h-31q-117 0 -204 -75.5t-105 -201.5zM399 1571l269 170l225 -170l-59 -68l-179 129l-217 -127z" />
<glyph unicode="&#xd5;" horiz-adv-x="1058" d="M88 362l96 666q26 180 146.5 282.5t290.5 102.5h32q105 0 185 -46.5t119 -135t22 -203.5l-96 -666q-27 -182 -146.5 -282t-292.5 -100h-28q-80 0 -146 26.5t-111 75t-64.5 121t-6.5 159.5zM201 365q-20 -132 44 -204.5t187 -72.5h29q115 0 202 75.5t107 201.5l94 661 q20 131 -42.5 204t-184.5 73h-31q-117 0 -204 -75.5t-105 -201.5zM356 1579q86 125 185 125q44 0 125 -48.5t125 -49.5q41 2 88 67l65 -47q-80 -123 -172 -123q-37 0 -73 14.5t-60.5 32.5t-55.5 32.5t-59 14.5q-57 0 -104 -71z" />
<glyph unicode="&#xd6;" horiz-adv-x="1058" d="M88 362l96 666q26 180 146.5 282.5t290.5 102.5h32q105 0 185 -46.5t119 -135t22 -203.5l-96 -666q-27 -182 -146.5 -282t-292.5 -100h-28q-80 0 -146 26.5t-111 75t-64.5 121t-6.5 159.5zM201 365q-20 -132 44 -204.5t187 -72.5h29q115 0 202 75.5t107 201.5l94 661 q20 131 -42.5 204t-184.5 73h-31q-117 0 -204 -75.5t-105 -201.5zM416 1571l22 145h129l-22 -145h-129zM750 1571l22 145h129l-22 -145h-129z" />
<glyph unicode="&#xd7;" horiz-adv-x="1005" d="M18 0l394 518l-224 486h113l180 -404l301 404h113l-367 -486l246 -518h-119l-196 436l-322 -436h-119z" />
<glyph unicode="&#xd8;" horiz-adv-x="1181" d="M47 -154l131 234q-93 101 -69 282l98 666q26 181 145.5 283t290.5 102h33q131 0 217 -67l121 213h94l-156 -275q70 -102 49 -256l-98 -666q-26 -182 -144.5 -282t-291.5 -100h-29q-114 0 -194 47l-103 -181h-94zM223 365q-14 -100 21 -168l587 1040q-60 66 -172 66h-32 q-117 0 -203.5 -75.5t-104.5 -201.5zM303 131q55 -43 150 -43h30q114 0 202 75.5t106 201.5l96 661q11 67 -6 129z" />
<glyph unicode="&#xd9;" horiz-adv-x="1142" d="M125 362l149 1031h111l-149 -1031q-19 -138 52.5 -206t198.5 -68q108 0 197 73.5t107 200.5l149 1031h113l-150 -1031q-27 -190 -143.5 -286t-288.5 -96q-78 0 -145 23.5t-117.5 69t-73.5 120.5t-10 169zM518 1776l109 71l141 -299l-82 -49z" />
<glyph unicode="&#xda;" horiz-adv-x="1142" d="M125 362l149 1031h111l-149 -1031q-19 -138 52.5 -206t198.5 -68q108 0 197 73.5t107 200.5l149 1031h113l-150 -1031q-27 -190 -143.5 -286t-288.5 -96q-78 0 -145 23.5t-117.5 69t-73.5 120.5t-10 169zM620 1538l234 283l77 -64l-241 -264z" />
<glyph unicode="&#xdb;" horiz-adv-x="1142" d="M125 362l149 1031h111l-149 -1031q-19 -138 52.5 -206t198.5 -68q108 0 197 73.5t107 200.5l149 1031h113l-150 -1031q-27 -190 -143.5 -286t-288.5 -96q-78 0 -145 23.5t-117.5 69t-73.5 120.5t-10 169zM436 1550l269 170l225 -170l-60 -67l-178 129l-217 -127z" />
<glyph unicode="&#xdc;" horiz-adv-x="1142" d="M125 362l149 1031h111l-149 -1031q-19 -138 52.5 -206t198.5 -68q108 0 197 73.5t107 200.5l149 1031h113l-150 -1031q-27 -190 -143.5 -286t-288.5 -96q-78 0 -145 23.5t-117.5 69t-73.5 120.5t-10 169zM452 1551l23 145h129l-23 -145h-129zM786 1551l23 145h129 l-23 -145h-129z" />
<glyph unicode="&#xdd;" horiz-adv-x="897" d="M168 1393h129l121 -715l332 715h129l-424 -838l-80 -555h-113l80 557zM485 1538l234 283l78 -64l-242 -264z" />
<glyph unicode="&#xde;" horiz-adv-x="917" d="M18 0l203 1393h113l-41 -281h231q133 0 213 -103.5t58 -248.5l-7 -41q-22 -147 -121.5 -235.5t-246.5 -88.5h-230l-57 -395h-115zM205 504h229q89 0 158.5 62t83.5 153l6 41q13 97 -35 170.5t-143 73.5h-225z" />
<glyph unicode="&#xe0;" horiz-adv-x="868" d="M45 244l37 260l504 106l26 178q13 90 -19 127t-114 37q-69 0 -141.5 -24t-116.5 -51l-28 92q58 37 146 65.5t167 28.5q118 0 179.5 -70t41.5 -202l-115 -791h-102l10 111q-65 -74 -122 -95.5t-130 -21.5q-112 0 -176.5 66.5t-46.5 183.5zM158 246q-10 -72 30.5 -111 t112.5 -39q34 0 71.5 11t73.5 33t62.5 61t32.5 88l32 229l-389 -88zM320 1470l108 72l141 -299l-81 -49z" />
<glyph unicode="&#xe1;" horiz-adv-x="868" d="M45 244l37 260l504 106l26 178q13 90 -19 127t-114 37q-69 0 -141.5 -24t-116.5 -51l-28 92q58 37 146 65.5t167 28.5q118 0 179.5 -70t41.5 -202l-115 -791h-102l10 111q-65 -74 -122 -95.5t-130 -21.5q-112 0 -176.5 66.5t-46.5 183.5zM158 246q-10 -72 30.5 -111 t112.5 -39q34 0 71.5 11t73.5 33t62.5 61t32.5 88l32 229l-389 -88zM422 1235l234 283l77 -64l-241 -264z" />
<glyph unicode="&#xe2;" horiz-adv-x="868" d="M45 244l37 260l504 106l26 178q13 90 -19 127t-114 37q-69 0 -141.5 -24t-116.5 -51l-28 92q58 37 146 65.5t167 28.5q118 0 179.5 -70t41.5 -202l-115 -791h-102l10 111q-65 -74 -122 -95.5t-130 -21.5q-112 0 -176.5 66.5t-46.5 183.5zM158 246q-10 -72 30.5 -111 t112.5 -39q34 0 71.5 11t73.5 33t62.5 61t32.5 88l32 229l-389 -88zM237 1247l269 170l225 -170l-60 -68l-178 129l-217 -127z" />
<glyph unicode="&#xe3;" horiz-adv-x="868" d="M45 244l37 260l504 106l26 178q13 90 -19 127t-114 37q-69 0 -141.5 -24t-116.5 -51l-28 92q58 37 146 65.5t167 28.5q118 0 179.5 -70t41.5 -202l-115 -791h-102l10 111q-65 -74 -122 -95.5t-130 -21.5q-112 0 -176.5 66.5t-46.5 183.5zM158 246q-10 -72 30.5 -111 t112.5 -39q34 0 71.5 11t73.5 33t62.5 61t32.5 88l32 229l-389 -88zM195 1258q43 63 87 94t97 31q44 0 125 -49t125 -50q40 2 88 68l65 -47q-80 -123 -172 -123q-37 0 -73 14.5t-60.5 32.5t-55.5 32.5t-59 14.5q-57 0 -104 -71z" />
<glyph unicode="&#xe4;" horiz-adv-x="868" d="M45 244l37 260l504 106l26 178q13 90 -19 127t-114 37q-69 0 -141.5 -24t-116.5 -51l-28 92q58 37 146 65.5t167 28.5q118 0 179.5 -70t41.5 -202l-115 -791h-102l10 111q-65 -74 -122 -95.5t-130 -21.5q-112 0 -176.5 66.5t-46.5 183.5zM158 246q-10 -72 30.5 -111 t112.5 -39q34 0 71.5 11t73.5 33t62.5 61t32.5 88l32 229l-389 -88zM254 1247l22 146h130l-23 -146h-129zM588 1247l22 146h129l-22 -146h-129z" />
<glyph unicode="&#xe5;" horiz-adv-x="868" d="M45 244l37 260l504 106l26 178q13 90 -19 127t-114 37q-69 0 -141.5 -24t-116.5 -51l-28 92q58 37 146 65.5t167 28.5q118 0 179.5 -70t41.5 -202l-115 -791h-102l10 111q-65 -74 -122 -95.5t-130 -21.5q-112 0 -176.5 66.5t-46.5 183.5zM158 246q-10 -72 30.5 -111 t112.5 -39q34 0 71.5 11t73.5 33t62.5 61t32.5 88l32 229l-389 -88zM342 1339q9 68 61.5 113t116.5 45q60 0 102 -46t33 -112q-9 -68 -62.5 -113.5t-119.5 -45.5q-61 0 -100.5 47t-30.5 112zM414 1335q-4 -36 17 -60t54 -24t62 24.5t33 59.5q5 36 -15 62t-55 26 q-31 0 -60.5 -26.5t-35.5 -61.5z" />
<glyph unicode="&#xe6;" horiz-adv-x="1421" d="M47 256l33 227l520 84l21 148q18 117 -17.5 176t-118.5 59q-60 0 -145 -31.5t-127 -60.5l-20 94q55 41 144.5 74t168.5 33q82 0 136 -46t69 -128q48 79 131 128.5t174 49.5q129 0 205.5 -93.5t54.5 -254.5l-21 -142l-548 -77l-27 -183q-16 -112 50 -165.5t181 -53.5 q73 0 140.5 29t103.5 61l39 -82q-57 -57 -139.5 -86.5t-161.5 -29.5q-109 0 -191.5 40t-111.5 121q-104 -161 -309 -161q-114 0 -183 73.5t-51 196.5zM158 258q-11 -84 32.5 -128t118.5 -44q53 0 105 18.5t94.5 61t50.5 100.5l31 213l-410 -69zM719 586l436 59l12 82 q17 112 -31 170.5t-137 58.5q-87 0 -167 -72.5t-93 -168.5z" />
<glyph unicode="&#xe7;" horiz-adv-x="780" d="M53 276l70 486q21 142 123 222.5t243 80.5q84 0 149.5 -39.5t92.5 -103.5l-76 -72q-49 104 -176 104q-88 0 -160.5 -54t-85.5 -144l-67 -473q-8 -53 8 -93t48 -61t66.5 -31t69.5 -10q113 -6 203 78l49 -80q-102 -93 -239 -102l-39 -88l2 -1q15 -6 28.5 -15t37.5 -31 t36 -58.5t6 -81.5q-11 -79 -73.5 -132t-159.5 -79l-23 70q52 14 102.5 48t57.5 81q1 20 0.5 35t-8.5 28.5t-14.5 23t-18.5 17.5t-21 13t-21 9.5t-18.5 6.5t-14.5 4l-9 2l55 150q-51 7 -94 27.5t-76.5 55t-48 88t-4.5 119.5z" />
<glyph unicode="&#xe8;" horiz-adv-x="860" d="M55 299l68 467q13 89 71 158t137.5 104t164.5 35q123 0 204 -86t64 -211l-35 -244h-528l-33 -221q-14 -103 49 -156t168 -53q73 0 134 22t99 58l39 -82q-62 -56 -131.5 -79t-160.5 -23q-64 0 -123.5 20.5t-106 58t-69 98t-11.5 134.5zM215 621h414l22 143 q11 81 -38 136.5t-134 55.5q-88 0 -159.5 -55t-83.5 -141zM342 1470l108 72l141 -299l-81 -49z" />
<glyph unicode="&#xe9;" horiz-adv-x="860" d="M55 299l68 467q13 89 71 158t137.5 104t164.5 35q123 0 204 -86t64 -211l-35 -244h-528l-33 -221q-14 -103 49 -156t168 -53q73 0 134 22t99 58l39 -82q-62 -56 -131.5 -79t-160.5 -23q-64 0 -123.5 20.5t-106 58t-69 98t-11.5 134.5zM215 621h414l22 143 q11 81 -38 136.5t-134 55.5q-88 0 -159.5 -55t-83.5 -141zM444 1233l234 283l77 -64l-241 -264z" />
<glyph unicode="&#xea;" horiz-adv-x="860" d="M55 299l68 467q13 89 71 158t137.5 104t164.5 35q123 0 204 -86t64 -211l-35 -244h-528l-33 -221q-14 -103 49 -156t168 -53q73 0 134 22t99 58l39 -82q-62 -56 -131.5 -79t-160.5 -23q-64 0 -123.5 20.5t-106 58t-69 98t-11.5 134.5zM215 621h414l22 143 q11 81 -38 136.5t-134 55.5q-88 0 -159.5 -55t-83.5 -141zM262 1245l269 170l225 -170l-60 -68l-178 129l-217 -127z" />
<glyph unicode="&#xeb;" horiz-adv-x="860" d="M55 299l68 467q13 89 71 158t137.5 104t164.5 35q123 0 204 -86t64 -211l-35 -244h-528l-33 -221q-14 -103 49 -156t168 -53q73 0 134 22t99 58l39 -82q-62 -56 -131.5 -79t-160.5 -23q-64 0 -123.5 20.5t-106 58t-69 98t-11.5 134.5zM215 621h414l22 143 q11 81 -38 136.5t-134 55.5q-88 0 -159.5 -55t-83.5 -141zM279 1245l22 146h129l-22 -146h-129zM612 1245l23 146h129l-23 -146h-129z" />
<glyph unicode="&#xec;" horiz-adv-x="501" d="M84 0l152 1047h114l-151 -1047h-115zM156 1452l108 72l142 -299l-82 -49z" />
<glyph unicode="&#xed;" horiz-adv-x="501" d="M84 0l152 1047h114l-151 -1047h-115zM252 1214l234 283l77 -64l-241 -264z" />
<glyph unicode="&#xee;" horiz-adv-x="501" d="M76 1229l268 170l225 -170l-59 -68l-178 129l-217 -127zM84 0l152 1047h114l-151 -1047h-115z" />
<glyph unicode="&#xef;" horiz-adv-x="501" d="M84 0l152 1047h114l-151 -1047h-115zM90 1227l23 145h129l-23 -145h-129zM424 1227l23 145h129l-23 -145h-129z" />
<glyph unicode="&#xf0;" horiz-adv-x="968" d="M61 289l60 409q20 134 126 223t245 89q64 0 124 -25.5t93 -69.5q-11 168 -146 320l-282 -119l-21 74l244 102q-112 119 -268 148l51 100q202 -57 338 -199l249 109l25 -74l-221 -98q184 -225 133 -569l-61 -420q-20 -136 -132.5 -222.5t-259.5 -86.5q-90 0 -162.5 40 t-110 111.5t-24.5 157.5zM174 295q-12 -90 46.5 -148.5t152.5 -58.5t173.5 60.5t92.5 146.5l55 391q13 92 -47 152.5t-155 60.5q-91 0 -169 -61t-90 -146z" />
<glyph unicode="&#xf1;" horiz-adv-x="987" d="M63 0l152 1044h102l-16 -155q123 174 309 174q121 0 181.5 -81.5t39.5 -225.5l-108 -756h-115l109 748q15 101 -22 152.5t-120 51.5q-89 0 -184 -70t-108 -167l-105 -715h-115zM281 1256q43 63 87 94t97 31q44 0 125 -49t125 -50q40 2 88 68l65 -47q-80 -123 -172 -123 q-37 0 -73 14.5t-60.5 32.5t-55.5 32.5t-59 14.5q-57 0 -104 -71z" />
<glyph unicode="&#xf2;" d="M51 283l72 485q20 134 127 214.5t244 80.5q131 0 218 -82.5t68 -212.5l-69 -485q-21 -137 -129.5 -218t-245.5 -81q-129 0 -216.5 83.5t-68.5 215.5zM166 283q-13 -89 43 -140t143 -51q52 0 104 22.5t91 67t47 101.5l70 483q13 87 -42.5 136.5t-144.5 49.5 q-83 0 -156.5 -51.5t-84.5 -134.5zM352 1470l109 72l141 -299l-82 -49z" />
<glyph unicode="&#xf3;" d="M51 283l72 485q20 134 127 214.5t244 80.5q131 0 218 -82.5t68 -212.5l-69 -485q-21 -137 -129.5 -218t-245.5 -81q-129 0 -216.5 83.5t-68.5 215.5zM166 283q-13 -89 43 -140t143 -51q52 0 104 22.5t91 67t47 101.5l70 483q13 87 -42.5 136.5t-144.5 49.5 q-83 0 -156.5 -51.5t-84.5 -134.5zM453 1233l233 283l78 -64l-242 -264z" />
<glyph unicode="&#xf4;" d="M51 283l72 485q20 134 127 214.5t244 80.5q131 0 218 -82.5t68 -212.5l-69 -485q-21 -137 -129.5 -218t-245.5 -81q-129 0 -216.5 83.5t-68.5 215.5zM166 283q-13 -89 43 -140t143 -51q52 0 104 22.5t91 67t47 101.5l70 483q13 87 -42.5 136.5t-144.5 49.5 q-83 0 -156.5 -51.5t-84.5 -134.5zM270 1245l269 170l225 -170l-59 -67l-179 129l-217 -127z" />
<glyph unicode="&#xf5;" d="M51 283l72 485q20 134 127 214.5t244 80.5q131 0 218 -82.5t68 -212.5l-69 -485q-21 -137 -129.5 -218t-245.5 -81q-129 0 -216.5 83.5t-68.5 215.5zM166 283q-13 -89 43 -140t143 -51q52 0 104 22.5t91 67t47 101.5l70 483q13 87 -42.5 136.5t-144.5 49.5 q-83 0 -156.5 -51.5t-84.5 -134.5zM229 1255q86 125 185 125q44 0 125 -48.5t125 -49.5q40 2 88 68l65 -47q-80 -123 -172 -123q-37 0 -73 14.5t-60.5 32.5t-55.5 32.5t-59 14.5q-57 0 -104 -72z" />
<glyph unicode="&#xf6;" d="M51 283l72 485q20 134 127 214.5t244 80.5q131 0 218 -82.5t68 -212.5l-69 -485q-21 -137 -129.5 -218t-245.5 -81q-129 0 -216.5 83.5t-68.5 215.5zM166 283q-13 -89 43 -140t143 -51q52 0 104 22.5t91 67t47 101.5l70 483q13 87 -42.5 136.5t-144.5 49.5 q-83 0 -156.5 -51.5t-84.5 -134.5zM287 1245l22 146h129l-22 -146h-129zM621 1245l22 146h129l-22 -146h-129z" />
<glyph unicode="&#xf7;" horiz-adv-x="1390" d="M94 539l12 92h1133l-14 -92h-1131zM510 172l27 180h180l-27 -180h-180zM604 809l25 182h180l-27 -182h-178z" />
<glyph unicode="&#xf8;" horiz-adv-x="1077" d="M-51 -117l182 254q-28 64 -16 146l69 485q20 134 127 214.5t244 80.5q119 0 199 -64l114 160h93l-156 -215q51 -77 37 -176l-70 -485q-21 -137 -129.5 -218t-245.5 -81q-64 0 -123 22.5t-98 63.5l-135 -187h-92zM225 266l457 635q-54 51 -143 51q-52 0 -103.5 -21.5 t-91 -65t-47.5 -99.5l-70 -483zM248 170q24 -38 68 -58t98 -20q83 0 156.5 53t84.5 138l72 483q4 40 -4 63z" />
<glyph unicode="&#xf9;" horiz-adv-x="985" d="M115 279l110 765h113l-111 -765q-14 -98 38.5 -144.5t146.5 -46.5q86 0 155 49t82 142l111 765h114l-112 -765q-21 -149 -123 -224t-244 -75q-64 0 -118.5 19t-95 55t-59 94t-7.5 131zM410 1452l108 72l141 -299l-81 -49z" />
<glyph unicode="&#xfa;" horiz-adv-x="985" d="M115 279l110 765h113l-111 -765q-14 -98 38.5 -144.5t146.5 -46.5q86 0 155 49t82 142l111 765h114l-112 -765q-21 -149 -123 -224t-244 -75q-64 0 -118.5 19t-95 55t-59 94t-7.5 131zM510 1214l234 283l77 -64l-241 -264z" />
<glyph unicode="&#xfb;" horiz-adv-x="985" d="M115 279l110 765h113l-111 -765q-14 -98 38.5 -144.5t146.5 -46.5q86 0 155 49t82 142l111 765h114l-112 -765q-21 -149 -123 -224t-244 -75q-64 0 -118.5 19t-95 55t-59 94t-7.5 131zM328 1229l268 170l225 -170l-59 -68l-178 129l-217 -127z" />
<glyph unicode="&#xfc;" horiz-adv-x="985" d="M115 279l110 765h113l-111 -765q-14 -98 38.5 -144.5t146.5 -46.5q86 0 155 49t82 142l111 765h114l-112 -765q-21 -149 -123 -224t-244 -75q-64 0 -118.5 19t-95 55t-59 94t-7.5 131zM344 1227l23 145h129l-23 -145h-129zM678 1227l23 145h129l-23 -145h-129z" />
<glyph unicode="&#xfd;" horiz-adv-x="815" d="M-45 -436l8 102q72 0 138.5 49.5t107.5 157.5l37 84l-137 1087h120l105 -909l352 909h125l-479 -1157q-65 -160 -153 -241t-224 -82zM412 1233l233 283l78 -64l-242 -264z" />
<glyph unicode="&#xfe;" horiz-adv-x="1017" d="M2 -481l274 1892h115l-69 -471q55 60 131 93.5t161 33.5q130 0 211.5 -89.5t63.5 -219.5l-70 -467q-20 -137 -123 -224t-239 -87q-84 0 -154 32t-106 88l-84 -581h-111zM240 299q-13 -93 51.5 -154t167.5 -61q86 0 161 61.5t87 149.5l67 457q13 93 -40.5 151t-147.5 58 q-98 0 -183.5 -63.5t-97.5 -149.5z" />
<glyph unicode="&#xff;" horiz-adv-x="858" d="M-25 -436l9 102q72 0 138 49.5t107 157.5l37 84l-137 1087h121l104 -909l353 909h124l-479 -1157q-65 -160 -153 -241t-224 -82zM274 1227l23 145h129l-23 -145h-129zM608 1227l23 145h129l-23 -145h-129z" />
<glyph unicode="&#x152;" horiz-adv-x="1722" d="M92 391l88 604q15 106 90.5 197.5t188.5 145t235 53.5h895l-16 -111h-508l-74 -504h418l-16 -106h-414l-82 -561h557l-16 -109h-944q-118 0 -216 52.5t-149.5 143t-36.5 195.5zM207 399q-15 -127 72.5 -208.5t230.5 -81.5h272l170 1171h-274q-77 0 -162.5 -40 t-149.5 -108.5t-75 -142.5z" />
<glyph unicode="&#x153;" horiz-adv-x="1480" d="M55 293l70 475q19 129 126.5 214t248.5 85q92 0 170.5 -45t105.5 -119q48 69 124 116.5t165 47.5q63 0 119.5 -21.5t100.5 -62t64 -107.5t7 -151l-23 -154l-559 -98l-24 -176q-14 -96 57.5 -148.5t177.5 -52.5q57 0 129 26t111 62l53 -78q-57 -53 -145 -82.5t-164 -29.5 q-50 0 -96 9.5t-87.5 28t-72.5 49.5t-47 71q-52 -74 -138 -116t-184 -42q-133 0 -220 87t-69 212zM170 297q-12 -85 46 -141t153 -56q89 0 167.5 58.5t90.5 138.5l67 465q12 84 -47.5 141.5t-152.5 57.5q-90 0 -168 -59t-88 -138zM788 569l443 80l10 74q13 101 -36.5 169.5 t-135.5 68.5q-88 -2 -164 -61t-88 -140z" />
<glyph unicode="&#x178;" horiz-adv-x="856" d="M168 1393h129l121 -715l332 715h129l-424 -838l-80 -555h-113l80 557zM313 1550l23 146h129l-23 -146h-129zM647 1550l23 146h129l-23 -146h-129z" />
<glyph unicode="&#x2c6;" horiz-adv-x="710" d="M184 1237l269 170l225 -170l-60 -68l-178 129l-217 -127z" />
<glyph unicode="&#x2dc;" horiz-adv-x="813" d="M195 1272q43 63 87 94t97 31q44 0 125 -49t125 -50q40 2 88 68l65 -47q-80 -123 -172 -123q-37 0 -73 14.5t-60.5 32.5t-55.5 32.5t-59 14.5q-57 0 -104 -71z" />
<glyph unicode="&#x2000;" horiz-adv-x="934" />
<glyph unicode="&#x2001;" horiz-adv-x="1868" />
<glyph unicode="&#x2002;" horiz-adv-x="934" />
<glyph unicode="&#x2003;" horiz-adv-x="1868" />
<glyph unicode="&#x2004;" horiz-adv-x="622" />
<glyph unicode="&#x2005;" horiz-adv-x="467" />
<glyph unicode="&#x2006;" horiz-adv-x="311" />
<glyph unicode="&#x2007;" horiz-adv-x="311" />
<glyph unicode="&#x2008;" horiz-adv-x="233" />
<glyph unicode="&#x2009;" horiz-adv-x="373" />
<glyph unicode="&#x200a;" horiz-adv-x="103" />
<glyph unicode="&#x2010;" horiz-adv-x="563" d="M76 522l14 107h365l-17 -107h-362z" />
<glyph unicode="&#x2011;" horiz-adv-x="563" d="M76 522l14 107h365l-17 -107h-362z" />
<glyph unicode="&#x2012;" horiz-adv-x="563" d="M76 522l14 107h365l-17 -107h-362z" />
<glyph unicode="&#x2013;" horiz-adv-x="1144" d="M-2 549l12 86h1080l-15 -86h-1077z" />
<glyph unicode="&#x2014;" horiz-adv-x="1583" d="M0 549l12 86h1508l-13 -86h-1507z" />
<glyph unicode="&#x2018;" horiz-adv-x="237" d="M115 1051l8 57q19 132 52 210.5t93 135.5l54 -43q-61 -88 -82 -244l-17 -116h-108z" />
<glyph unicode="&#x2019;" horiz-adv-x="241" d="M70 1098q45 57 68 107.5t34 133.5l16 113h107l-6 -53q-11 -74 -26.5 -128t-38.5 -94t-41.5 -63.5t-51.5 -58.5z" />
<glyph unicode="&#x201a;" horiz-adv-x="444" d="M63 -203q45 58 68.5 108.5t34.5 133.5l16 113h107l-6 -54q-11 -74 -26.5 -128t-38.5 -94t-41.5 -63.5t-51.5 -58.5z" />
<glyph unicode="&#x201c;" horiz-adv-x="471" d="M115 1051l8 57q19 132 52 210.5t93 135.5l54 -43q-61 -88 -82 -244l-17 -116h-108zM352 1051l8 57q19 131 52.5 210t93.5 136l53 -43q-61 -88 -82 -244l-16 -116h-109z" />
<glyph unicode="&#x201d;" horiz-adv-x="501" d="M63 1051q45 58 68.5 108.5t34.5 132.5l16 113h107l-6 -53q-11 -74 -26.5 -128t-38.5 -94t-41.5 -63.5t-51.5 -58.5zM313 1051q45 58 68.5 108.5t34.5 132.5l16 113h107l-7 -53q-11 -74 -26.5 -128t-38 -94t-41 -63.5t-51.5 -58.5z" />
<glyph unicode="&#x201e;" horiz-adv-x="784" d="M66 -201q45 57 68 108t34 134l16 113h107l-6 -54q-11 -74 -26.5 -128t-38.5 -94t-41.5 -63.5t-51.5 -58.5zM385 -199q45 57 68 108t34 134l17 113h106l-6 -54q-11 -74 -26.5 -128t-38.5 -94t-41.5 -63.5t-51.5 -58.5z" />
<glyph unicode="&#x2022;" horiz-adv-x="692" d="M125 360l51 351h342l-51 -351h-342z" />
<glyph unicode="&#x2026;" horiz-adv-x="1468" d="M74 0l26 193h172l-28 -193h-170zM535 0l26 193h172l-28 -193h-170zM995 0l27 193h172l-29 -193h-170z" />
<glyph unicode="&#x202f;" horiz-adv-x="373" />
<glyph unicode="&#x2039;" horiz-adv-x="600" d="M66 356l360 369l55 -70l-276 -295l192 -290l-75 -70z" />
<glyph unicode="&#x203a;" horiz-adv-x="600" d="M20 70l275 290l-189 295l76 70l254 -369l-360 -356z" />
<glyph unicode="&#x205f;" horiz-adv-x="467" />
<glyph unicode="&#x20ac;" horiz-adv-x="1323" d="M115 537l12 86h176l25 168h-176l12 88h178l20 149q26 177 150 281t291 104q107 0 189.5 -41.5t127.5 -120.5l-82 -84q-80 136 -247 136q-116 0 -207 -76.5t-109 -202.5l-20 -145h555l-15 -88h-553l-24 -168h553l-13 -86h-552l-27 -183q-20 -132 46.5 -200t192.5 -68 q176 0 283 104l53 -75q-71 -73 -158 -104t-200 -31q-165 0 -261 97t-71 273l27 187h-176z" />
<glyph unicode="&#x2122;" horiz-adv-x="1132" d="M190 1354l11 80h364l-12 -80h-141l-52 -353h-79l51 353h-142zM586 1004l61 430h80l90 -213l160 213h80l-62 -430h-82l43 292l-131 -178h-45l-71 185l-43 -299h-80z" />
<glyph unicode="&#xe000;" horiz-adv-x="1044" d="M0 0v1044h1044v-1044h-1044z" />
<glyph unicode="&#xfb03;" horiz-adv-x="1466" d="M76 0l139 948h-121l15 99h120l21 145q13 88 72.5 149t146 89t193.5 28q110 0 229 -35l-8 -22q108 57 258 57q107 0 229 -35l-33 -90q-18 2 -50 6t-49.5 6t-45.5 3.5t-55 1.5q-126 0 -206.5 -43t-92.5 -125l-19 -135h203l-14 -99h-203l-137 -948h-113l137 948h-119l15 99 h119l22 145q11 85 70 147q-83 11 -142 11q-125 0 -206 -43t-93 -125l-18 -135h203l-15 -99h-202l-138 -948h-112zM1051 0l151 1047h113l-152 -1047h-112z" />
<glyph unicode="&#xfb04;" horiz-adv-x="1591" d="M113 0l137 948h-119l14 99h119l21 145q13 88 72.5 149t146.5 89t194 28t230 -35l-17 -41q115 76 289 76q108 0 230 -35l-5 -10h54l-205 -1413h-113l195 1337q-115 13 -160 13q-126 0 -206.5 -43t-92.5 -125l-18 -135h202l-14 -99h-203l-137 -948h-113l138 948h-119l14 99 h119l22 145q11 82 68 145q-115 13 -162 13q-126 0 -206.5 -43t-92.5 -125l-20 -135h203l-15 -99h-203l-137 -948h-110z" />
</font>
</defs>
</svg>
